<svg version="1.2" xmlns="http://www.w3.org/2000/svg" viewBox="0 0 1024 1024" width="1024" height="1024"><style>.a{fill:#1a6357}.b{fill:#fff}</style><path class="a" d="m270 0.7c-4.1 0.1-16.1 1-26.5 1.9-10.4 0.8-24.2 2.4-30.5 3.5-6.3 1.1-16.4 3.1-22.5 4.6-6.1 1.4-16.8 4.6-24 7-7.2 2.5-19.3 7.6-27 11.4-7.7 3.7-19 10-25 14-6 3.9-15 10.4-20 14.4-5 4-13.5 11.7-19.1 17.1-5.5 5.5-13.4 14.2-17.6 19.4-4.1 5.2-10.8 14.5-14.7 20.5-4 6-10.4 17.3-14.1 25-3.8 7.7-9.1 20.8-11.9 29-2.7 8.3-6.2 20.4-7.6 27-1.5 6.6-3.5 18.1-4.5 25.5-1 7.4-2.5 20.7-3.2 29.5-1 12.6-1.3 67.8-1.3 261.5 0 192.7 0.3 248.9 1.3 261.5 0.7 8.8 2.2 22.3 3.3 30 1.1 7.7 3.1 19.2 4.5 25.5 1.4 6.3 4.7 18.1 7.5 26.3 2.7 8.1 7.3 19.8 10.2 25.9 3 6.2 8 15.8 11.3 21.3 3.3 5.5 8.6 13.6 11.8 18 3.3 4.4 9.6 12.2 14 17.4 4.5 5.2 12.6 13.4 18.1 18.3 5.5 4.9 14 12 19 15.7 5 3.8 13.7 9.7 19.5 13.1 5.8 3.5 15.4 8.7 21.5 11.6 6.1 2.8 16.4 7 23 9.3 6.6 2.3 16.3 5.3 21.5 6.6 5.2 1.3 14.7 3.3 21 4.4 6.3 1.1 17.8 2.7 25.5 3.6 7.7 0.8 23 2 34 2.5 11.5 0.6 115.1 1 244.5 1 129.4 0 233-0.4 244.5-1 11-0.5 26.3-1.7 34-2.5 7.7-0.9 19.2-2.5 25.5-3.6 6.3-1.1 15.8-3.1 21-4.4 5.2-1.3 15.6-4.5 23-7.1 7.4-2.6 19.4-7.7 26.5-11.4 7.1-3.6 17-9.2 22-12.4 5-3.2 12.8-8.8 17.5-12.5 4.7-3.6 11.9-9.7 16-13.4 4.1-3.8 11-10.7 15.4-15.5 4.3-4.8 10.9-12.7 14.6-17.7 3.7-5 9.6-13.7 13-19.5 3.5-5.8 8.8-15.6 11.7-21.8 2.9-6.1 7.5-17.8 10.2-25.9 2.8-8.2 6.1-20 7.5-26.3 1.4-6.3 3.2-16.2 4-22 0.8-5.8 2-15 2.5-20.5 0.6-5.5 1.5-20.6 2.1-33.5 0.8-16.2 1-96.6 0.7-257.5-0.3-167.3-0.7-237.6-1.5-246.5-0.7-6.9-1.9-17.9-2.7-24.5-0.9-6.6-2.7-17.4-4-24-1.3-6.6-3.6-16.1-5-21-1.5-4.9-4.2-13.3-6.1-18.5-2-5.2-6.2-14.9-9.4-21.5-3.2-6.6-8.4-16-11.5-21-3.1-5-9.5-14.2-14.3-20.5-4.8-6.3-13.4-16.2-19.2-21.9-5.8-5.8-15-14.1-20.5-18.5-5.5-4.4-14.7-11-20.5-14.8-5.8-3.8-16.8-9.9-24.5-13.7-7.7-3.8-19.9-8.9-27-11.4-7.1-2.4-18-5.6-24-7-6-1.5-16.4-3.5-23-4.6-6.6-1.2-19.6-2.8-29-3.8-15.4-1.5-39.3-1.7-260.5-1.8-133.9-0.1-246.9 0-251 0.2z"/><path fill-rule="evenodd" class="b" d="m307.5 100.8c-2.2 1-5.5 3.4-7.4 5.3-1.8 1.9-4.1 5-5 6.9-1.5 3.1-1.7 6.8-1.3 29.5l0.3 26c5.8 7.8 9.3 11 11.4 12.2 3.1 1.8 5.6 2.3 11.5 2.3 6.7 0.1 7.9-0.3 11.5-2.8 2.2-1.6 5.2-4.3 6.8-6 1.5-1.8 2.9-4.2 3.2-5.4 0.3-1.3 0.5-14.5 0.3-29.4l-0.3-27.1c-4-5.3-7-8.1-9.1-9.6-3.1-2.2-5.3-2.9-10.9-3.3-5.5-0.4-7.9-0.1-11 1.4zm130.5-0.2c-1.9 0.9-4.7 2.4-6.3 3.5-1.5 1-3.7 3.8-5 6.2-2.1 4.1-2.2 5.1-2.2 31.3v27c4.3 6.5 7.2 9.5 9.3 10.9 2 1.4 6.2 3 9.2 3.6 4.1 0.9 6.6 0.9 9.8 0 2.3-0.6 6.1-2.6 8.4-4.3 2.3-1.8 5.2-5.3 6.5-7.8 2.3-4.4 2.3-5.2 2.3-29.5 0-22-0.3-25.5-1.9-29-1-2.2-3.7-5.7-5.9-7.7-2.3-2.1-5.9-4.2-8-4.8-2-0.5-5.7-1-8.2-1-2.5 0.1-6.1 0.8-8 1.6zm126.5-0.2c-1.6 0.7-4.8 2.8-7 4.8-2.2 1.9-4.8 5.1-5.8 7.1-1.5 3.2-1.7 6.9-1.7 28.7 0 18.4 0.3 25.9 1.3 28.3 0.7 1.7 3 4.9 5 7 2 2 5.2 4.5 6.9 5.4 2.1 1.1 5.6 1.8 9.9 1.8 5.6 0 7.3-0.5 11.4-3 2.7-1.7 6.3-5 7.9-7.3l3.1-4.4c0.6-37.4 0.3-48.4-0.4-51.8q-1.1-5.5-4.4-9.5c-1.8-2.2-5.3-5-7.8-6.2-3-1.6-6.2-2.3-9.9-2.2-3 0-6.9 0.6-8.5 1.3zm130.5 0.2c-1.9 0.8-5 2.6-6.8 4-1.7 1.3-4.2 4.3-5.5 6.6-2.1 4.1-2.2 5.3-2.2 30.3v26c4.7 8.1 7 10.4 10.7 12.5 2.9 1.6 7.3 3.2 9.8 3.5 3 0.4 6 0.1 9-1 2.5-0.9 6-2.7 7.7-4.1 1.8-1.3 4.4-4.2 5.8-6.4l2.5-4-0.5-54.8c-4.9-7-8-9.6-11.5-11.4-4-2.1-6.9-2.8-10.5-2.8-2.8 0-6.6 0.8-8.5 1.6zm-473 27.4c-45 0.5-45.6 0.6-52 3-3.6 1.3-9.7 4.5-13.5 7.1-3.8 2.5-9.4 7.3-12.3 10.5-3 3.3-7.2 9.8-9.7 14.9-3.3 6.7-4.7 10.9-5.5 16.5-0.5 4.1-1 17.1-1 28.7v21.3h768c-0.1-32.2-0.5-44.9-0.9-49-0.5-4.6-2-10.4-3.9-15-2-4.7-5.3-10.1-9-14.5-3.2-3.8-8.3-8.9-11.3-11.2-3-2.3-9.2-5.9-13.9-8l-8.5-3.8c-80.6-0.8-104.2-0.8-104.5-0.7-0.3 0.2-0.7 9.9-0.9 21.5l-0.3 21.2c-5.8 10.9-9.4 15.6-12.3 18.3-2.8 2.5-7.5 5.6-10.5 7-4 1.9-7.7 2.7-13.5 3-5.4 0.3-10-0.1-14.3-1.2-3.4-0.9-8.1-2.9-10.4-4.5-2.4-1.6-6.2-4.9-8.5-7.5-2.4-2.5-5.7-7.3-7.3-10.6l-3-6v-41.5h-49.8l-0.7 42.1c-5.9 12.2-8.9 16.4-11.7 18.9-2.5 2.2-7.2 5.3-10.4 7-4.9 2.5-7.4 3-14.9 3.4-6.9 0.3-10.4-0.1-15-1.5-3.3-1-8.6-3.8-11.8-6.1-3.1-2.4-7.1-6.4-8.9-9.1-1.7-2.6-4-7.2-5-10.2-1.4-4.3-2-9.9-2.5-25l-0.6-19.5h-43.5c-0.9 10.1-1.2 19.7-1.2 28v15c-5.7 10.1-9.4 15-11.9 17.6-2.5 2.5-7.3 5.8-10.6 7.5-5.6 2.7-6.8 2.9-17.5 2.9-10.8 0-11.9-0.2-17.4-3-3.2-1.7-8.1-5.3-10.9-8-2.8-2.8-6.3-7.8-8.1-11.5l-3.1-6.5-0.7-42h-49.8c0 26.3-0.5 36.7-1.1 40-0.6 3.3-2.1 8-3.4 10.5-1.2 2.5-4.9 7-8.1 10-3.3 3-8.2 6.6-10.9 8-4.5 2.2-6.3 2.5-16.5 2.5h-11.5c-11.7-6.3-16.5-9.9-18.8-12.5-2.2-2.5-5.1-7-6.5-10-1.7-3.7-2.8-8.3-3.3-14-0.4-4.7-0.8-14.5-0.8-21.8l-0.1-13.2c-6.6 0.3-29 0.7-54 1zm-94 237v113h62c0-132.9-0.3-183.8-0.7-198.8l-0.8-27.2h-60.5zm521-111.9c-1.4 0.6-4 2.1-5.8 3.5-1.7 1.3-4.4 4.8-5.9 7.7l-2.7 5.2c-0.5 112.4-0.3 159.2 0.1 176.5l0.8 31.5 60.5 0.5c0.5-162.8 0.7-169.8 2.3-172.8l1.7-3.2h34v176h62v-176l34.5 0.5c2.8 5.6 3 17.4 3.2 90.8l0.3 84.7h62c-0.1-147.6-0.5-195.7-0.8-202-0.7-11-0.9-11.8-3.8-15.5-1.7-2.2-5.1-5-7.5-6.2l-4.4-2.3c-187.7 0.1-228.9 0.5-230.5 1.1zm-521 417.2c0 149.2 0.2 169.9 1.5 175.2 0.9 3.3 3.5 9.8 5.8 14.5 2.7 5.4 6.3 10.8 10.2 14.9 3.3 3.5 8.5 8.1 11.5 10.1 3 2.1 9.1 5.3 13.5 7.2l8 3.3h667c10.9-4.5 16.9-7.7 20.5-9.9 3.6-2.3 8.5-6.2 10.8-8.7 2.4-2.4 5.8-6.4 7.5-8.9 1.7-2.5 4.6-7.9 6.5-12 3.1-6.7 3.5-8.9 4.3-20 0.4-6.9 0.8-85.1 0.9-173.7v-161.3h-768zm59-152.2h650l-0.1 116.2c0 63.9-0.4 131.8-0.8 150.8-0.5 28.6-0.9 35-2.2 37.5-0.9 1.6-3.8 5.2-6.5 8-2.7 2.8-6.5 6-8.4 7-3.2 1.7-7.4 1.9-53 2.7-27.2 0.4-162.7 0.7-552.5 0.2l-6-2.4c-3.6-1.5-7.7-4.1-10.2-6.7-2.4-2.4-5.6-7.1-10.3-16.3v-148.5zm16-242.3v23.8c23.7 7.4 24 7.5 24.6 10.7 0.3 1.8 0.3 4.8-0.1 6.8-0.4 1.9-1.6 4.6-2.7 6-1 1.3-1.8 3.5-1.8 4.7 0 1.2 0.7 3.5 1.6 5 1.5 2.6 1.4 3.9-3.5 26-2.8 12.8-5.1 24.8-5.1 26.8 0 2.9 0.4 3.5 2.8 4.1 1.5 0.3 4.4 1.5 6.5 2.5 2 1 4.8 1.9 6.2 1.9 1.4 0 4.3-0.9 6.5-2 2.2-1.1 4.8-2 5.8-2 0.9 0 2.4-0.7 3.2-1.6 1.3-1.5 1.3-2.5-0.3-9.8-1-4.5-3.7-16-5.9-25.6-3.9-16.9-4-17.7-2.4-20.8 0.9-1.8 1.6-4.1 1.6-5.2 0-1.1-1.1-3.4-2.5-5-1.9-2.4-2.5-4.2-2.5-8 0-3.6 0.4-4.9 1.3-4.7 0.6 0.2 5.9 2 11.7 3.9 5.8 2 17.7 5.8 26.5 8.6 8.8 2.7 22.1 6.8 29.5 9.1 7.4 2.2 14.2 4.1 15 4.1 0.8 0 13.7-3.8 28.5-8.5 14.9-4.7 40.2-12.7 56.2-17.8l29.3-9.2v-47.5h-230zm244-1.1c0 12.6 0.2 23.8 0.5 25.1l0.5 2.2h98c3.1 4.8 3.6 8.1 3.8 17l0.3 11.5-129.6 1.7c-9.2 4.9-13.7 7.9-15.9 9.9-2.3 2-5.9 6.9-8 11l-3.9 7.4c-0.7 59-0.5 79.4 0 83.5 0.6 4.2 2.1 10 3.6 13.3 1.5 3.1 4.6 7.6 7 10 2.4 2.3 6.8 5.5 9.8 7.1l5.4 3 177 0.1c7.3-4.3 10.7-7.2 12.2-9.2 2.6-3.4 2.8-4.6 3.6-17.2 0.5-7.5 0.7-51.7 0.5-98.2l-0.3-84.6c-4.7-7.5-8-11.1-10.4-12.7l-4.3-3.1-149.8-0.5zm30.8 108.2c7.5-0.3 26.9-0.7 72.2-1l-0.5 39-6.5 6.5h-38.8c-37.3 0-38.8 0-42.2-2-1.9-1.2-4.5-3.6-5.8-5.5-2-3.1-2.3-4.7-2.3-14.5 0-9.8 0.3-11.3 2.3-14.4 1.3-1.9 3.6-4.3 5.1-5.5 2.4-1.8 4.7-2.1 16.5-2.6zm-190 30.1c0.2 55.9 0.4 64 1.7 64.4 0.8 0.3 14.9 0.5 31.2 0.5h29.8c-1.3-98.8-1.9-127.8-2.3-128.1-0.4-0.4-7.1 1-15 3-13.6 3.5-14.5 3.6-20 2.3-3.1-0.7-10.2-2.3-15.6-3.6l-9.9-2.3zm442 129.2c-3.7 1.2-7.3 2.7-8 3.5-1.1 1.1-1 1.5 0.6 2.7 1.1 0.7 2.9 2.3 4 3.4 2 2 2.2 2 7 0.4 2.8-0.9 5.3-2.2 5.7-2.8 0.4-0.6 0.5-1.4 0.3-1.8-0.3-0.4 0.1-1.5 0.7-2.5 0.6-1 0.8-2.5 0.5-3.5-0.4-1-1.4-1.7-2.4-1.7-1 0-4.8 1.1-8.4 2.3zm-392.9 60.6v54h20v-108h-20zm396.3-47.3l-10.3 3.3c0.9 5.9 1.6 9 2.1 10.8 0.7 2.5 1.9 3.7 5.1 5 2.3 1 4.8 3.1 5.8 4.7 1 1.7 2.1 4.8 2.5 7 0.5 3.4 0.1 5.1-2.5 10l-3.2 6 2.7 15.7-5 3.8 4 4c17.9-5.3 24.8-7.4 27-8.2 2.2-0.8 4.4-2.1 4.9-2.9 0.5-0.7 0.6-2.1 0.3-3.1-0.4-1.1-1.7-1.8-3.7-1.8-2.7 0-3-0.3-3.5-3.7-0.3-2.1-3.3-14.1-6.6-26.8-3.2-12.6-6.4-24-6.9-25.2-0.5-1.2-1.3-2.2-1.7-2.1-0.4 0-5.4 1.6-11 3.5zm-478.5 75.3c-0.4 29.2-0.5 53.5-0.3 54 0.3 0.6 4.9 1 10.5 1h10v-29c34.7 0 38.1-0.2 41-1.7 1.9-1 4.7-3.3 6.3-5.3l2.9-3.5c-0.3-54.7-0.5-58.3-2-61-1-1.6-3.3-3.9-5.2-5-3.2-1.8-5.6-2-33-2.3l-29.5-0.3zm25-33.3c2.1-0.3 8.1-0.4 13.4-0.3 5.4 0.1 10.1 0.5 10.5 1 0.5 0.4 1 8.8 1.2 18.5 0.1 10.4-0.2 18.3-0.8 19.2-0.7 1.2-3.5 1.5-13.9 1.5-7.1 0-13.3-0.4-13.8-0.9-0.4-0.4-1-8.3-1.1-17.5-0.2-9.1-0.1-17.7 0.2-18.9 0.5-1.7 1.5-2.3 4.3-2.6zm95.3-10.9v8.8c36.7 1.4 39.7 1.8 40.8 3.2 0.7 1 1.2 2.9 1.2 4.3 0 2.4-0.2 2.5-10.8 3.2-5.9 0.4-14.4 0.8-19 0.8-5.2 0-9.4 0.5-11.5 1.5-1.7 0.8-4.3 3.1-5.7 5.1-2.4 3.5-2.5 4.4-2.5 18.3 0 13.5 0.2 14.8 2.2 17.8 1.3 1.8 4.1 4.2 6.3 5.3 3.6 1.8 6 2 25.7 1.9 12 0 23.5-0.4 25.5-1 2.5-0.6 4.7-2.2 6.5-4.6l2.8-3.7c0-49.6-0.4-59-1.2-61.1-0.7-1.7-3.1-4.3-5.3-5.8l-4-2.7h-51zm13.5 39.8c1.3-1.3 4.3-1.6 29-1.6l-0.8 3.2c-0.4 1.8-0.7 4.8-0.7 9.8h-13.5c-12.5 0-13.6-0.1-14.5-2-0.6-1.1-1-3.3-1.1-4.9 0-1.6 0.7-3.7 1.6-4.5zm59.2-47.2c-0.4 0.9-0.7 18.7-0.7 39.6v38h21v-60.5c20.3 1.2 24.7 1.9 25.2 2.7 0.4 0.7 0.8 14 0.8 29.6v28.2h20c0-64.8-0.2-67.8-1.9-71-1-1.9-3.4-4.4-5.2-5.5-3.1-1.8-5.5-2-31-2.3-24.4-0.3-27.7-0.2-28.2 1.2zm77.7 19.8c0.3 11.7 0.6 29.5 0.6 39.6v18.2h20c0-28.3 0.3-41.6 0.7-47.8l0.8-11.2c22.2 0 24.6 0.3 25 1.5 0.3 0.8 0.5 14.1 0.5 29.5v28h20c-0.5-67.6-0.6-69.7-2.5-72.4-1.1-1.6-3.4-3.6-5-4.5-2.5-1.3-7.6-1.6-31.9-1.9l-28.8-0.3zm88.7-19.4c-2.4 0.9-5.2 2.8-6.2 4.2-1.1 1.4-2.4 5.2-3 8.5-0.6 3.6-0.9 15.3-0.7 29.5 0.3 21.3 0.5 23.8 2.3 26.9 1.1 1.8 3.3 4.3 4.8 5.5 2.7 2 4.2 2.1 29.8 2.3l26.9 0.3v-18.5c-31.4-0.9-41.1-1.5-41.8-1.9-0.9-0.5-1.2-5.3-1.2-18.9 0-10 0.4-18.8 0.8-19.4 0.4-0.7 4.5-1.5 9.7-1.8 4.9-0.4 10.8-0.3 13 0.2l4 0.9 0.5 11.4h-24v18c33-0.5 35.1-0.7 37.5-2.5 1.5-1.1 3.7-3.3 4.9-4.8 1.8-2.4 2.2-4.5 2.4-13.5 0.2-5.9-0.1-13-0.7-15.7-0.6-2.8-2.1-6-3.3-7.2-1.3-1.2-4-2.9-6.1-3.8-3-1.2-7.9-1.5-24.5-1.5-17 0.1-21.5 0.4-25.1 1.8zm80.4-0.7c-1.7 0.5-3.8 1.7-4.9 2.6-1 1-2.6 3.1-3.5 4.8-1.4 2.6-1.6 7.6-1.9 36.7l-0.2 33.8h19.5c1.2-14.4 1.5-26.4 1.5-36 0-9.6 0.3-19 0.7-20.8 0.7-2.8 1.2-3.3 3.8-3.3 1.6 0 3.4-0.3 4-0.7 0.6-0.4 1-3.6 1.1-7.2 0-3.6 0.3-7.5 0.7-8.8 0.7-2.2 0.6-2.2-8.6-2.1-5 0-10.6 0.5-12.2 1zm26.2 3.1c-2.7 2.9-3 3.8-2.4 7.3 0.3 2.5 1.5 4.7 2.9 5.8 1.3 1 3.8 1.7 5.6 1.7 2.1 0 4.1-0.9 5.7-2.5 1.9-1.9 2.5-3.6 2.5-7 0-3.8-0.5-4.9-2.8-6.6-1.5-1.1-4-2-5.5-2-1.9 0.1-3.9 1.2-6 3.3zm30.8 41.2c-2.2 0.7-5 1.8-6.3 2.4-1.2 0.7-2.2 2.1-2.2 3.2 0 1.1 0.3 2.2 0.7 2.4 0.5 0.3 3.4-0.1 6.5-1 3.2-0.8 7.1-2.1 8.8-2.9 2.2-1.1 2.9-2 2.5-3.5-0.4-1.4-1.3-2-3.3-1.9-1.5 0-4.5 0.6-6.7 1.3zm-31.7 25.1c-0.7 0.9-1.9 2.2-2.6 3-0.6 0.8-1.2 2.4-1.2 3.5 0 1.9 0.7 2 35 2h35c-0.5-7.1-0.9-7.7-4-8.7-2.4-0.8-12.7-1.2-32.2-1.3-24.6 0-28.9 0.2-30 1.5zm-107.4 46c-3.8 2-9.8 6-13.4 8.9-3.6 2.9-9.6 9-13.3 13.6-3.8 4.7-9 12-11.5 16.2-2.6 4.2-5.2 7.7-5.7 7.7-0.6 0-3.6-2.5-6.8-5.5-3.5-3.4-6.9-5.6-9-6-1.7-0.4-4.6-0.3-6.2 0.1-1.7 0.3-4.2 1.5-5.8 2.6-1.5 1-2.7 2.6-2.7 3.4 0 0.8 1.5 2.3 3.2 3.4 1.8 1 6.1 4.9 9.6 8.7 3.5 3.8 8.2 9.7 10.5 13.1l4.2 6.2 12 0.1c2.9-8.9 6.4-16.7 9.6-23 3.1-6.3 9.2-16.5 13.4-22.5 4.2-6.1 11.1-14.5 15.3-18.8 6.2-6.2 7.5-8.1 6.7-9.4-0.6-0.9-1.5-1.8-2.1-2-0.6-0.2-4.2 1.2-8 3.2zm-317-0.8c-0.7 0.5-1.3 1.7-1.5 2.7-0.2 1.1-1.5 2.3-2.9 2.7-1.4 0.4-4 0.7-5.8 0.8-2 0-4.4 1.1-6.3 2.8l-3.1 2.8c0.6 63.2 1 73.6 1.9 75.2 0.7 1.3 2.3 2.8 3.5 3.4 1.3 0.6 10.6 1.3 21.8 1.6 10.7 0.3 27.9 0.3 38.2-0.1l18.8-0.6c3.2-6 3.5-9.8 3.8-27 0.2-11.3 0-21.5-0.5-22.7l-0.8-2.1-5.6 4.3-1.4 41.5-71-0.5-0.5-72.5c8.4 0 9.2 0.3 10.3 2.7 0.8 1.9 2 2.8 3.7 2.8 1.7 0 2.8-0.9 3.7-2.8 1.2-2.6 1.6-2.7 8-2.5 6.2 0.3 6.8 0.5 7.3 2.8 0.4 1.8 1.3 2.6 3.3 2.7 2.2 0.2 2.9-0.3 3.9-2.7 1.3-3 1.5-3 8-3 6.7 0 6.8 0 7 2.7 0.3 2.4 0.8 2.8 3.3 2.8 2.3 0 3.3-0.7 4.2-2.8 1-2 2-2.7 4-2.7 1.6 0 3.9-0.7 5.2-1.7 1.3-1 2.2-2.3 1.9-2.8-0.3-0.6-2.9-1.4-5.7-1.8-4.4-0.6-5.2-1.1-5.6-3.2-0.4-2-1.1-2.5-3.5-2.5-2.3 0-3.2 0.6-4 2.5-0.7 1.8-1.8 2.5-3.8 2.5-1.5 0-4.3 0.3-6.2 0.6-3.2 0.6-3.6 0.3-5-2.5-1.2-2.5-2.1-3.2-4.3-3.2-2 0.1-2.8 0.7-3.2 2.3-0.5 1.9-1.4 2.4-6.3 2.9-3.1 0.3-6.3 0.4-7 0.2-0.6-0.2-1.2-1.2-1.2-2.3 0-1.1-0.9-2.5-2-3-1.1-0.6-2.3-1-2.8-1-0.4 0-1.2 0.3-1.8 0.7zm124.6-0.1c-1 0.4-1.4 2.1-1.2 6.7 0.1 3.4 0.7 6.7 1.4 7.4 0.7 0.7 1.6 1.3 2 1.3 0.3 0 1.4-0.7 2.2-1.5 1.1-1 1.6-3.3 1.6-6.8 0-2.9-0.5-5.8-1.2-6.5-0.7-0.7-1.8-1.2-2.3-1.2-0.6 0.1-1.7 0.4-2.5 0.6zm50 0c-1 0.4-1.4 2.1-1.2 6.7 0 3.6 0.7 6.7 1.4 7.4 0.7 0.7 2.1 1.1 3 0.8 1-0.3 2.1-1.8 2.4-3.3 0.4-1.5 0.3-4.3-0.1-6.2-0.4-1.9-1.2-4.1-1.8-4.8-0.7-0.7-1.4-1.3-1.7-1.2-0.3 0.1-1.2 0.4-2 0.6zm-99.4 3.6l-3.8 3.3c3.6 2.7 6.4 4.6 8.4 6l3.8 2.5c4.6-3.1 6.2-5 6.6-6.3 0.3-1.4-0.1-2.9-1.3-4.1-1-1-3-2.5-4.6-3.2-1.5-0.8-3.3-1.4-4-1.4-0.6 0-2.9 1.4-5.1 3.2zm167.7 3.2c-1.7 0.8-4.1 2.9-5.4 4.7-1.8 2.8-2.3 5.2-2.7 13.4-0.4 7-0.2 10.2 0.6 10.7 0.7 0.4 2.8-0.2 4.7-1.5 2-1.2 3.7-3.1 4-4.2 0.2-1.1 0.7-3.8 1-6 0.4-2.2 1.6-5 2.8-6.3 2.1-2.2 2.7-2.3 21.2-2.2h19l9.5-10c-45.1 0.1-52.3 0.4-54.7 1.4zm129.1 1c-1.7 0.8-3.9 2.7-5 4.2-1.8 2.6-1.9 5-1.9 37.2v34.3c7.8 7.4 8.5 7.6 16.5 8.3 4.7 0.5 20.5 0.6 35.1 0.4l26.6-0.3c5.6-4.3 7.8-6.8 8.4-8.3 0.7-1.7 1.1-14.6 1.2-34.7 0.2-28.8 0-32.3-1.6-35.3-0.9-1.8-3.2-4.1-5-5.2-3-1.9-4.9-2-37.2-2-26.7 0.1-34.7 0.4-37.1 1.4zm7.9 9.5c1.2-0.4 14.7-0.8 57.7-0.9l5 5v56l-5.5 4.9-56 0.1-7-7.1 0.8-27.2c0.5-16 1.2-27.8 1.8-28.6 0.6-0.7 2-1.7 3.2-2.2zm-269-7.5l-2.8 2.4v71.3c7.7 7.3 8.6 7.6 16 8.3 4.4 0.4 20.6 0.4 36 0l28-0.8c5.6-5.2 6.9-7.5 7.5-10.6 0.5-2.5 0.9-16.9 0.9-32 0-15.1-0.4-29.5-0.9-32-0.6-3.1-1.8-5.3-3.7-6.9-1.7-1.4-3.8-2.2-5.2-2-1.9 0.3-2.7 1.2-3.4 3.9-0.5 1.9-1.6 4.3-2.5 5.3-1 0.9-2.6 1.7-3.7 1.7-1.1 0-2.9-0.8-4-1.7-1.2-1-2.4-3.5-2.8-5.6l-0.7-3.7h-36c-0.9 6.9-1.7 8.4-3.5 9.5-2.1 1.2-3 1.3-5.3 0.2-2-0.9-3-2.3-3.7-5.5-0.9-3.9-1.3-4.2-4.2-4.2-1.9 0-4.3 0.9-6 2.4zm27.5 11.3c1-0.3 1.9-0.5 2.2-0.6 0.3-0.1 1.5 0.5 2.7 1.4 1.4 0.9 2.3 2.5 2.3 4 0 1.6-0.8 2.9-2.3 3.6-1.2 0.6-3.2 0.8-4.5 0.5-1.2-0.3-2.4-1.5-2.7-2.6-0.3-1.1-0.2-2.9 0.1-4 0.3-1 1.3-2.1 2.2-2.3zm23.2 0.3c0.8-0.6 1.9-1 2.5-1 0.5 0 1.7 0.4 2.5 0.9 1.3 0.7 1.2 0.9-0.3 1.5-1.1 0.4-1.7 1.7-2 7.1l-1.1-3.8c-0.6-2.1-1.6-3.8-2.1-3.7-0.6 0-0.3-0.5 0.5-1zm-12.3 3.2c0.6-1.4 0.8-1.3 1.3 0.8 0.4 1.8 1.3 2.6 3.3 2.7 1.5 0.2 2.7 0.7 2.7 1.3 0 0.5-1.1 1-2.5 1-1.4 0-3.2-0.7-4-1.5-0.8-0.8-1.5-1.7-1.5-2 0-0.3 0.3-1.3 0.7-2.3zm-31.7 11.8h68v41.5l-3 2.2c-2.9 2.2-3.5 2.3-58.5 2.3l-6.5-6.5v-19.8zm-54.6-20.7c-2.7 2.3-10.4 9.4-17.2 15.7-10 9.5-12 11.8-11 12.9 0.7 0.7 3.4 2.6 6 4.2l4.8 2.9c8.8-7.3 16.5-14.4 22.7-20.5 6.3-6 11.2-11.4 11-12-0.2-0.5-2.3-2.4-4.6-4.2-2.2-1.8-4.7-3.3-5.5-3.3-0.7 0-3.5 1.9-6.2 4.3zm257.5 3.9c-0.8 0.7-2.8 2.8-4.4 4.6l-3 3.4-1 50.3c-5.4 2.6-12 2.9-34.4 3h-28.4c-3.9-5.2-4.3-7.4-4.7-17.3l-0.4-11.7-8.1-5.6c-1.3 5.9-1.5 13.5-1.3 20.6 0.3 10.8 0.7 13.6 2.3 16.4 1.1 1.9 3.2 4.4 4.8 5.5 2.7 2.1 3.8 2.1 36.5 2.1 31.9 0 33.9-0.1 37.1-2 1.9-1.1 4.4-3.5 5.5-5.5 1.9-3.2 2.1-5.3 2.4-30 0.1-14.5-0.1-28.4-0.6-30.8-0.7-3.6-1-4.1-2.3-3zm-298.4 10c-8.6 3-9.3 3.1-15.3 2-4.9-0.9-6.6-0.9-7.8 0.1-0.8 0.7-1.5 1.5-1.5 1.7 0 0.3 1.7 1.3 3.8 2.3 2.1 1.1 6.2 1.9 9.3 1.9 3.3 0.1 8.7-0.9 13.7-2.5 4.6-1.5 9.1-2.6 10-2.6 1 0 2.9-0.9 4.3-1.9 1.4-1.1 2.3-2.3 2-2.6-0.3-0.4-2.5-0.9-5-1.1-3.4-0.4-6.7 0.2-13.5 2.7zm8.1 19.6c-0.3 0.4-1 2.6-1.5 5-1.1 4.2-1.1 4.2 1.6 4.2 1.5-0.1 4.4-0.7 6.3-1.4 1.9-0.7 3.6-1.8 3.7-2.4 0.2-0.7-1.4-2.3-3.5-3.7-2-1.4-4.3-2.5-4.9-2.5-0.7 0-1.4 0.4-1.7 0.8zm-32 1.7c-0.4 0.9 0.3 2.3 1.5 3.3 1.6 1.3 4.3 1.8 11.5 2 9.1 0.2 9.4 0.1 10.9-2.3 0.8-1.3 1.3-2.8 1-3.2-0.2-0.4-2.8-0.4-5.7 0.1-3.6 0.6-6.9 0.5-10.1-0.2-2.6-0.7-5.6-1.2-6.6-1.2-1.1 0-2.2 0.7-2.5 1.5zm26.9 16.5c-3.9 1.6-8.4 3-10 3-1.7 0-5.6-0.8-8.8-1.7-4.5-1.4-6-1.5-7-0.6-0.7 0.7-1 1.8-0.6 2.5 0.3 0.8 2.3 2.2 4.5 3.2 3.2 1.6 5.4 1.8 12.4 1.4 6.1-0.4 10.3-1.3 15-3.2 6.4-2.7 6.5-2.7 12.7-1.2 3.5 0.9 6.5 1.6 6.8 1.6 0.3 0 0.5-0.8 0.5-1.7 0-1-0.9-2.7-2.1-3.8-1.7-1.5-3.7-2-9.3-2.2-6-0.2-8.2 0.2-14.1 2.7zm112.7-42.2c0.2 2.2 0.8 2.7 2.8 2.7 2 0 2.5-0.5 2.5-2.7 0.1-2.4-0.3-2.8-2.8-2.8-2.5 0-2.8 0.3-2.5 2.8zm264.8 12.6c-1.8 0.7-4.1 2.3-5 3.6-0.8 1.2-1.7 4.4-2 7-0.5 4.6-0.3 5 3.8 9.2 4.4 4.3 4.4 4.3 10 3.7 4.7-0.5 6.2-1.2 8.4-3.7 2.3-2.6 2.8-4.1 2.8-8.4 0-4.6-0.4-5.6-3.3-8.4-2.1-2.1-4.6-3.4-7.2-3.8-2.3-0.3-5.5 0-7.5 0.8zm-267 8.5c-1.6 0.4-2.6 1.5-2.8 2.9-0.2 1.6 0.3 2.2 1.8 2.2 1.1 0 2.3 0.6 2.6 1.3 0.4 0.7 1 5.3 1.3 10.2 0.5 8.4 0.7 9 2.8 9.3 2.3 0.2 2.3 0.2 2-13l-0.2-13.3c-3.9-0.2-6.1 0-7.5 0.4zm16.5-0.2c-0.5 0.3-0.8 2.7-0.7 5.2 0.1 2.6 0.4 5.6 0.7 6.9 0.4 1.9 1.1 2.2 5 2.2 2.5 0 5.2 0.3 6 0.5 0.8 0.3 1.5 1.3 1.5 2.3 0 0.9-0.5 2.3-1.2 3-0.8 0.8-2.6 1.2-4.3 0.9-1.7-0.3-3.9-0.7-4.9-0.8-1-0.2-2.4 0.4-3 1.4-0.9 1.3-0.7 2 0.9 3.2 1.1 0.8 3.3 1.8 5 2.1 1.6 0.4 4.2 0.4 5.7 0 1.5-0.3 3.9-1.7 5.3-3.1 1.8-1.8 2.5-3.5 2.5-6.5 0-3.2-0.5-4.3-2.8-5.9-1.5-1-4.4-2.1-6.5-2.5-2.4-0.4-3.7-1.1-3.7-2.1 0-1 1.6-1.7 5.5-2.2 4.8-0.7 5.5-1 5.3-2.8-0.3-1.7-1.2-2-7.9-2.3-4.1-0.1-7.9 0.1-8.4 0.5z"/></svg>