<svg version="1.2" xmlns="http://www.w3.org/2000/svg" viewBox="0 0 2048 2048" width="2048" height="2048">
	<style>
		.s0 { fill: #1a6357 } 
		.s1 { fill: #f8fdfc } 
	</style>
	<g id="Layer 9">
		<path id="Path 0" class="s0" d="m0 1024v1024h2048v-2048h-2048z"/>
		<path id="Path 1" class="s1" d="m500 186.53c-3.85 1.42-10.4 5.27-14.57 8.53-4.16 3.27-9.8 10.44-12.54 15.94l-4.99 10 1.1 108.33c9.89 15.94 15.89 21.94 21.95 25.67 8.45 5.2 11.67 6 24.06 6 12.46 0 15.57-0.79 24.15-6.1 6.11-3.79 12.12-9.79 15.84-15.84l6-9.75c0-104.11-0.47-113.19-3.24-118.31-1.78-3.3-6.28-9.04-10-12.76-3.72-3.72-9.46-8.12-12.76-9.77-3.3-1.65-10.95-3.35-17-3.77-6.09-0.43-14.12 0.39-18 1.83zm342-0.86c-2.75 0.87-8.6 3.56-13 5.98-4.4 2.43-9.87 7.32-12.17 10.88-2.29 3.56-5.23 9.62-6.53 13.47-1.58 4.68-2.36 24.06-2.33 58.5 0.02 38.6 0.71 53.13 2.73 58 1.48 3.58 5.31 9.58 8.5 13.34 3.19 3.77 10.3 8.93 15.8 11.48 6.29 2.92 13.71 4.63 20 4.62 5.72-0.02 13.64-1.72 18.5-3.98 4.67-2.18 11.3-6.88 14.71-10.46 3.42-3.58 7.9-10.1 9.96-14.5 3.36-7.17 3.74-13.38 3.74-60 0-45.93-0.42-52.93-3.62-60-2-4.4-6.7-11.04-10.46-14.76-3.76-3.72-9.53-8.12-12.83-9.77-3.3-1.65-10.95-3.31-17-3.69-6.05-0.37-13.25 0.03-16 0.89zm345-0.69c-1.1 0.37-4.47 1.2-7.5 1.85-3.03 0.64-9.69 5-14.8 9.67-5.12 4.67-10.95 12.1-12.96 16.5-3.22 7.05-3.66 13.92-3.72 58-0.05 38.83 0.59 52.01 2.89 59 1.88 5.74 6.41 12.33 12.52 18.21 5.61 5.4 12.88 10.15 17.57 11.49 4.4 1.25 10.47 2.28 13.5 2.29 3.03 0 9.32-0.9 14-2.01 4.68-1.12 12.48-5.39 17.35-9.5 4.87-4.12 10.47-11.08 12.45-15.48 3.19-7.06 3.62-14.25 3.64-61 0.02-51.08-0.15-53.36-4.57-63-2.7-5.85-7.84-12.49-12.42-16-4.31-3.3-11.01-7.09-14.89-8.41-3.88-1.33-10.21-2.38-14.06-2.34-3.85 0.03-7.9 0.37-9 0.73zm333 1.67c-3.85 1.36-10.45 5.14-14.66 8.41-4.21 3.27-9.84 10.44-12.52 15.94-4.78 9.82-4.87 10.94-4.82 62 0.04 51.22 0.11 52.16 5.02 62.5 3.25 6.85 7.93 12.62 13.48 16.59 4.68 3.36 12.1 7.05 16.5 8.21 4.4 1.17 12.05 1.78 17 1.36 5.39-0.46 13.01-3.19 19-6.81 6.39-3.87 12.16-9.56 16-15.79l6-9.73c1.02-107.07 0.92-108.56-3.59-118.33-2.7-5.84-7.88-12.5-12.45-16-4.31-3.3-11.02-7.09-14.9-8.41-3.88-1.33-10.66-2.41-15.06-2.41-4.4 0-11.15 1.11-15 2.47zm-1171 59.3c-5.5 0.8-13.6 2.61-18 4.03-4.4 1.41-12.95 5.09-19 8.17-6.05 3.08-15.95 9.53-22 14.33-6.05 4.8-14.29 12.73-18.32 17.62-4.03 4.9-10.94 15.65-15.35 23.9-4.42 8.25-9.57 20.4-11.45 27-2.73 9.59-3.56 22.73-4.15 65.5l-0.73 53.5h1568c-1.2-104.88-1.6-110.06-5.82-123-2.51-7.7-7.4-19.4-10.87-26-3.72-7.1-12.83-18.58-22.3-28.11-11.04-11.11-20.36-18.35-30.01-23.31-7.7-3.96-18.95-8.75-25-10.66-8.59-2.71-20.31-3.62-53.5-4.19l-42.5-0.73-1 89c-11.43 23.25-16.83 32.29-19.37 35.09-2.55 2.8-9.13 8.5-14.63 12.66-5.99 4.54-15.61 9.23-24 11.7-10.79 3.17-17.44 3.89-29 3.1-8.67-0.59-20.06-2.99-27-5.68-8.51-3.3-15.59-8.19-24.34-16.77-8.44-8.28-14.43-16.52-18.96-26.1l-6.62-14-1.08-89h-174c0 76.38-0.54 83.71-3.97 94.5-2.19 6.87-7.36 17.34-11.5 23.25-4.14 5.92-11.58 13.73-16.53 17.36-4.95 3.63-13.5 8.59-19 11.02-6.46 2.87-15.66 4.78-26 5.42-11.73 0.72-19.2 0.05-28-2.51-6.6-1.92-16.5-6.38-22-9.9-5.5-3.52-13.42-10.4-17.61-15.27-4.18-4.88-9.79-13.37-12.47-18.87-2.67-5.5-5.79-14.95-6.91-21-1.13-6.05-2.04-27.42-2.03-47.5l0.02-36.5h-174l-1 89.22c-12.34 25.18-18.22 33.2-26.3 40.86-7.57 7.17-15.93 12.77-23.7 15.87-9.79 3.91-15.69 4.8-32 4.86-16.65 0.07-22.01-0.73-32-4.77-7.72-3.13-16.28-8.9-24-16.18-6.81-6.42-14.31-15.98-17.35-22.09-2.94-5.92-6.3-14.82-7.45-19.77-1.16-4.95-2.12-26.78-2.15-48.5l-0.05-39.5h-174c0 76.67-0.52 83.56-4 94-2.2 6.6-6.11 15.37-8.7 19.5-2.58 4.12-10 12.29-16.5 18.15-6.81 6.14-16.45 12.45-22.8 14.92-8.56 3.34-15.44 4.3-31 4.36-18.79 0.07-20.89-0.35-34.75-6.93-9.72-4.62-17.96-10.41-24.18-17-5.18-5.5-11.51-14.05-14.05-19-2.55-4.95-5.83-13.5-7.3-19-1.8-6.72-2.68-22.94-2.7-49.5l-0.02-39.5c-56.58 0.39-77.5 1.15-83 1.95zm-108.97 498.02l-0.03 238.03h126l-1-475-124.94-1.06zm153.97-187.97v50c33.32 10.64 44.57 14.24 46.5 14.86 2.89 0.94 3.5 3.58 3.5 15.14 0 12.27-0.62 14.62-5 19-2.85 2.85-5.03 7.37-5.07 10.5-0.04 3.03 1.68 7.75 3.82 10.5l3.9 5c-16.76 77.5-21.82 102.25-22.04 105-0.23 2.75 0.21 6.13 0.98 7.5 0.78 1.38 3.66 2.5 6.41 2.5 2.75 0 7.92 2.23 11.5 4.95 3.76 2.85 9.24 4.96 13 5 4.06 0.03 8.75-1.82 12.5-4.95 3.3-2.75 7.8-5 10-5 2.2 0 5.35-0.45 7-1 1.86-0.62 2.98-3.46 2.94-7.5-0.03-3.57-5.21-28.82-11.5-56.09-11.16-48.39-11.36-49.73-7.95-55 1.91-2.98 3.51-8.11 3.55-11.41 0.04-3.85-1.76-7.79-5.04-11-4.32-4.23-5.1-6.77-5.05-16.5 0.03-6.32 0.5-11.5 1.05-11.5 0.55 0 4.37 1.3 8.5 2.88 4.12 1.59 41.25 13.87 82.5 27.29 41.25 13.42 76.8 24.4 79 24.41 2.2 0 13.9-3.22 26-7.16 12.1-3.94 63.62-20.72 114.5-37.29l92.5-30.13v-100h-468zm498 2c0 44.45 0.43 52.15 3 53 1.65 0.55 47.1 1 101 1h98c7.67 10.37 8.13 13.93 8.07 36.5l-0.07 25.5-263 1c-17.83 8.53-27.73 15.39-33.5 20.75-7.21 6.7-12.7 14.38-17.5 24.5l-7 14.75c-1.1 143.09-0.58 176.04 0.89 184 1.22 6.6 4.29 16.5 6.83 22 2.54 5.5 8.72 14.05 13.72 19 5.01 4.95 14.38 11.7 20.83 15l11.73 6c329.86 1.06 355.09 0.73 362-1.85 4.4-1.64 11.37-6.17 15.5-10.06 4.12-3.9 9.07-10.46 11-14.59 3.26-6.98 3.5-21.26 3.5-208.5 0-169.64-0.45-202.25-2.87-209-1.58-4.4-6.08-11.51-10-15.81-3.92-4.3-10.73-9.45-15.13-11.46-7.51-3.42-17.19-3.64-157.5-3.68l-149.5-0.05zm408.81-47.18c-7.08 3.32-12.12 7.59-16.5 13.98-3.47 5.06-7.23 13.48-8.34 18.7-1.33 6.19-1.85 84.02-1.5 223.5l0.53 214 125 1c-0.14-356.93-0.09-359.06 3.93-364.5l4.07-5.5h70v370h126v-370h70c8.09 10.94 8.14 13.07 8.07 190.5l-0.07 179.5h126c-1-442.39-1.01-443.02-5.21-451-2.32-4.4-7.72-10.94-12-14.54-4.29-3.6-10.94-7.42-14.79-8.49-4.36-1.21-93.53-1.94-236-1.94l-229 0.01zm-734.02 335.44l0.21 134.74 125 1c0-241.68-0.53-269.99-2.5-269.97-1.38 0.02-15.3 3.39-30.95 7.5l-28.45 7.47c-42.7-10.12-57-13.61-59.31-14.27l-4.21-1.2zm-326.79 538.73c0 307.68 0.39 354.99 3.04 368.5 1.84 9.41 6.54 22.58 11.95 33.5 4.9 9.9 12.76 22.56 17.46 28.13 4.7 5.57 13.05 13.79 18.55 18.25 5.5 4.47 14.95 10.84 21 14.16 6.05 3.31 17.3 8.15 25 10.74l14 4.72c1249.53 0 1345.41-0.4 1354-2.86 5.5-1.58 14.95-5.06 21-7.73 6.05-2.67 15.95-8.27 22-12.43 6.05-4.16 14.06-10.59 17.79-14.27 3.74-3.69 10.2-11.21 14.35-16.71 4.15-5.5 10.01-14.95 13.02-21 3.01-6.05 7.35-16.85 9.64-24 4.15-12.95 4.16-14.21 4.47-372.5l0.31-359.5h-1567.58z"/>
		<path id="Path 2" class="s0" d="m933 781.83c-3.3 0.78-8.7 2.98-12 4.9-3.3 1.92-8.25 6.75-11 10.73-4.37 6.32-5.08 9.77-5.66 27.39-0.43 12.89 0.29 23.32 2 28.95 1.55 5.14 5.37 11.18 9.16 14.5 3.58 3.14 10.33 6.67 15 7.85 5.55 1.4 34.31 1.92 82.79 1.5 71-0.62 74.49-0.83 78.71-4.65 2.43-2.2 5.67-6.47 7.21-9.5 2.1-4.15 2.79-15.09 2.79-44.5v-39c-126.33 0.32-165.7 1.05-169 1.83zm-572.54 598.67l0.54 314.5c7.93 17.05 13.44 25.6 17.36 30 3.93 4.4 11.52 10.42 16.89 13.38 5.49 3.03 15.86 6.33 23.75 7.55 9.88 1.53 190.42 2.01 614 1.62 581.06-0.53 600.35-0.67 611-4.31 8.21-2.8 14.08-6.86 23.16-16 7.89-7.94 13.5-15.75 16-22.24 3.72-9.7 3.85-19.53 4.18-324.5l0.33-314.5h-1327.74z"/>
		<path id="Path 3" fill-rule="evenodd" class="s1" d="m1520.5 1086.22c1.93-0.12 4 1.36 4.6 3.28 0.61 1.93-0.29 4.63-2 6-1.92 1.55-2.67 4.21-1.98 7 0.99 3.97-0.13 4.91-9.5 7.97-5.84 1.91-11.74 3.49-13.12 3.5-1.38 0.02-3.28-1.99-4.23-4.47-0.95-2.47-3.42-4.5-5.5-4.5-2.23 0-4.02-1.63-4.38-4-0.52-3.4 1.89-4.79 16-9.28 9.14-2.9 18.18-5.38 20.11-5.5zm-856.5 17.78h42v228h-42zm869.5 8.14c1.38-0.08 3.07 2.34 3.77 5.36 0.7 3.03 7.45 30.03 15 60 7.55 29.98 13.73 54.95 13.73 55.5 0 0.55 2.73 0.78 6.07 0.5 3.68-0.3 6.83 0.68 7.97 2.5 1.05 1.65 1.93 4.35 1.97 6 0.06 2.1-7.01 5.23-23.46 10.4-12.95 4.07-28.95 8.9-35.55 10.72-11.49 3.18-12.11 3.16-14.53-0.4-1.4-2.05-2.52-4.39-2.5-5.22 0.01-0.82 2.06-2.52 4.53-3.77 2.47-1.25 4.77-2.37 5.09-2.5 0.33-0.13-1.02-8.12-3-17.77-2.93-14.3-3.12-18.18-1.06-21 1.39-1.9 4.31-6.16 6.49-9.46 2.38-3.61 3.97-9.39 3.97-14.5 0.01-4.67-1.22-11.42-2.73-15-1.51-3.57-4.89-8.45-7.5-10.84-2.62-2.38-7.84-5.08-11.6-6-6.49-1.57-6.98-2.33-9.64-14.66-1.54-7.15-2.42-13.9-1.96-15 0.46-1.1 6.59-3.54 13.64-5.41 7.04-1.88 16.4-4.74 20.8-6.36 4.4-1.62 9.12-3.01 10.5-3.09zm-1045.29 53.65l62.4 0.6c57.79 0.57 62.96 0.91 70.16 4.61 4.85 2.5 9.35 7 12 12 4.03 7.62 4.23 10.77 4.23 124.65l-6.05 8.68c-3.33 4.77-9.18 10.24-13 12.17-5.93 2.98-12.88 3.49-87.95 3.5v60h-42zm256.03-0.02l109.06 1.23 8.35 5.5c6.3 4.15 8.96 7.59 10.85 14 1.74 5.93 2.5 25.77 2.5 65.5 0 53.4-0.25 57.43-4 63.79-2.2 3.74-6.54 8.69-9.64 11-5.34 3.98-8.41 4.24-56 4.78-49.08 0.55-50.59 0.45-59.27-4-6.43-3.3-10.21-7.08-13.55-13.57-4.14-8.06-4.62-11.71-4.6-35 0.02-22.98 0.55-27.04 4.54-34.95 2.7-5.35 7.34-10.59 11.52-13 6.32-3.66 11.02-4.1 90-5.05v-9c0-7-0.89-9.44-4-11-2.28-1.14-21.67-2-86-2zm155.98 0.02l59.39 0.61c56.54 0.58 59.73 0.81 66.39 4.87 3.85 2.35 8.8 7.75 11 12 3.78 7.3 4 11.65 4 147.74l-41 1 0.03-60.5c0.03-46.2-0.56-61.1-2.5-63.04-1.79-1.79-10.27-2.52-55.53-2.46v126h-42zm166-0.05l60.39 0.63c57.54 0.61 60.72 0.84 67.39 4.9 3.85 2.35 8.8 7.75 11 12 3.78 7.3 4 11.65 4 147.73l-41 1 0.09-60.5c0.07-46.99-0.49-61.05-2.5-62.97-1.85-1.77-10.3-2.34-56.59-1.53l-1 125-41-1zm242.78 0.2c44.22-0.02 46.35 0.16 55 4.62 6.25 3.23 10.19 7.06 12.89 12.55 2.83 5.76 4.13 13.58 4.79 28.9 0.56 12.91-0.02 24.85-1.52 31-1.35 5.5-4.41 12.11-6.8 14.69-2.4 2.58-6.84 5.95-9.86 7.5-4.1 2.1-14.38 2.81-75.5 2.81v-36l51-1 0.5-10.5c0.34-7.21-0.44-11.44-2.5-13.5-2.36-2.36-8.54-3-28.86-3-20.25 0-26.54 0.65-29 3-2.64 2.52-3.14 9.06-3.14 41 0 31.11 0.54 38.54 3 41 2.48 2.48 10.44 3 89 3v40l-53.5-0.03c-49.15-0.03-54.19-0.35-62-4-6.02-2.81-9.81-6.45-13-12.47-4.36-8.23-4.5-10.28-4.5-64.5 0-48.38 0.48-57.29 3.5-65.5 3.05-8.27 4.86-10.15 14-14.52 10.27-4.92 11.51-5.03 56.5-5.05zm143.5 0.24c10.72-0.09 19.47 0.5 19.43 1.33-0.04 0.82-1.36 3.75-2.93 6.5-1.57 2.75-2.89 8.37-2.93 12.5-0.04 4.12 0.83 9.75 1.93 12.5 1.95 4.87 1.74 5.02-8 6-5.5 0.55-10.19 1.22-10.43 1.5-0.23 0.27-0.91 28.4-2.57 124.5l-43 1 0.51-69.5c0.44-59.01 1-70.56 3.74-76.5 1.78-3.85 5.38-9.02 7.99-11.48 2.62-2.47 7.46-5.31 10.76-6.33 3.3-1.02 14.77-1.92 25.5-2.02zm42 1.89c1.92-0.03 5.97 1.16 9 2.66 3.02 1.49 6.17 4.19 7 6 0.82 1.8 1.5 6.88 1.5 11.28 0 5.8-1.35 9.37-4.91 13-3.41 3.47-7.08 5-12 5-4.9 0-8.64-1.55-12.09-5-3.8-3.8-4.98-7.05-4.94-13.5 0.04-4.68 1.16-9.92 2.5-11.65 1.34-1.73 4.24-4.17 6.44-5.44 2.2-1.26 5.57-2.32 7.5-2.35zm70 90.08c2.21-0.09 3.5 1.33 3.5 3.86 0 2.2 0.22 4.6 0.5 5.34 0.27 0.73-7.6 3.86-17.5 6.95-13.61 4.24-18.36 5.01-19.47 3.16-0.81-1.35-1.52-3.8-1.58-5.45-0.06-1.65 2.4-4.09 5.47-5.41 3.07-1.33 10.08-3.74 15.58-5.36 5.5-1.62 11.57-3.01 13.5-3.09zm-21.5 53.26c41.32 0.36 46.36 0.77 49.57 4 1.96 1.98 3.53 6.3 3.43 15.6l-112 1v-5c0-2.75 1.12-7.25 2.5-10 1.37-2.74 4.3-5.22 6.5-5.5 2.2-0.27 24.7-0.32 50-0.1zm-1016.55 122.57c2.5-0.02 5.69 1.1 7.08 2.5 1.4 1.39 2.52 4.55 2.5 7.03-0.03 4.3 0.61 4.48 14.46 4 14.39-0.5 14.49-0.54 15.52-6.5 0.87-5.1 1.93-6 7.01-6 5.1 0 6.21 0.96 9.17 13.16l14.39-0.58c14.27-0.58 14.4-0.63 15.43-6.58 0.87-5.09 1.93-6 6.99-6 5.06 0 6.12 0.9 6.99 6 0.97 5.62 1.66 6.04 11.02 6.62 5.49 0.34 10.89 1.44 11.99 2.45 1.3 1.2 0.61 3.26-2 5.95-2.6 2.67-6.46 4.07-11 4-6.05-0.1-7.17 0.64-8.28 5.43-0.7 3.05-2.95 6.25-5 7.1-2.05 0.85-5.3 1.08-7.22 0.5-2.32-0.7-3.5-3.07-3.5-13.05h-15c-12.97 0-15 0.47-14.97 3.5 0.02 1.92-1.1 5.19-2.5 7.26-1.88 2.8-3.93 3.44-8.03 2.5-4.5-1.03-5.5-2.35-5.5-13.26l-29-0.04-2 6.51c-1.14 3.7-3.51 6.74-5.5 7.02-1.93 0.28-4.89-0.62-6.59-1.99-1.7-1.38-3.05-4.53-3-7 0.08-4.17-0.68-4.46-20.91-3.5l-0.45 75c-0.35 56.99 0.13 75.62 2 77.61 1.95 2.07 17.25 2.48 146.45 1.39l1.13-86 5.43-5.54c2.99-3.05 6.11-5.53 6.94-5.5 0.82 0.02 1.5 22.09 1.5 49.04 0 48.94-0.01 49.01-9.65 60l-73.68 0.62c-46.02 0.38-76.3-0.15-80.67-1.42-4.43-1.29-8.29-4.27-10.5-8.12-3.17-5.5-3.5-13.35-3.5-158.08l4.74-5.49c4-4.63 6.74-5.65 17.48-6.5 10.78-0.86 12.84-1.63 13.38-5.01 0.35-2.2 1.01-5.13 1.47-6.5 0.46-1.38 2.88-2.52 5.38-2.53zm294.55 0.1c1.1-0.14 3.13 0.92 4.51 2.34 1.57 1.62 2.32 6.99 2 14.38-0.34 7.8-1.53 12.47-3.51 13.8-1.65 1.11-4.58 1.43-6.5 0.71-2.81-1.05-3.58-4.02-3.9-15.13-0.31-10.55 0.29-14.08 2.5-14.85 1.59-0.55 3.8-1.12 4.9-1.25zm101-0.01c0.55 0 1.99 0.66 3.21 1.47 1.21 0.81 2.78 6.19 3.5 11.97 0.72 5.87 0.41 12.26-0.71 14.5-1.26 2.53-3.66 3.81-6.5 3.5-4.08-0.45-4.59-1.8-5.47-14.32-0.77-10.88-0.34-14.17 2-15.47 1.63-0.91 3.42-1.65 3.97-1.65zm347 0.01c1.1-0.14 3.12 1.14 4.5 2.84 1.37 1.7 1.82 4.36 1 5.91-0.83 1.55-5.91 6.73-11.31 11.5-5.39 4.77-14.51 14.98-20.26 22.68-5.74 7.7-15.42 21.65-21.5 31-6.08 9.35-15.21 25.55-20.29 36-5.08 10.45-11.69 25.97-20.14 49.99l-22-0.09-9-14.24c-4.95-7.83-15.3-20.96-23-29.17-7.7-8.2-16.93-16.63-20.5-18.71-6.32-3.68-6.4-3.9-3-7.99 1.92-2.31 5.97-5.46 9-7 3.02-1.53 8.42-2.93 12-3.1 3.57-0.17 9.2 1.11 12.5 2.84 3.3 1.74 10.5 7.74 16 13.34 5.5 5.6 10.67 10.17 11.5 10.15 0.82-0.01 4.8-6.1 8.84-13.52 4.03-7.43 12.3-20.25 18.36-28.5 6.06-8.25 16.04-20.29 22.16-26.75 6.13-6.46 17.44-16.03 25.14-21.26 7.7-5.23 17.15-10.9 21-12.59 3.85-1.69 7.9-3.19 9-3.33zm-582.61 1.93c1.98 0 5.63 1.01 8.11 2.25 2.47 1.24 6.55 4.16 9.05 6.5 2.5 2.34 4.53 5.37 4.5 6.75-0.03 1.37-2.75 5.2-6.05 8.5-3.3 3.3-7.13 6.03-8.5 6.07-1.38 0.04-7.28-3.78-23.75-17.07l6.51-6.5c3.58-3.58 8.14-6.5 10.13-6.5zm116.11 14.13c4.98-0.12 5.5 0.54 5.5 6.87 0 3.85 0.78 8.57 1.74 10.5 0.95 1.92 4.1 4.17 7 5 3.08 0.88 7.12 0.55 9.76-0.8 2.47-1.26 5.16-3.29 5.97-4.5 0.81-1.21 1.48-5.58 1.53-17.2l73-0.06 1.38 8.53c0.88 5.39 3.09 9.85 6 12.11 2.54 1.98 6.42 3.52 8.62 3.44 2.2-0.08 5.8-1.53 8-3.21 2.55-1.96 4.36-6.29 5-11.96 0.76-6.78 1.84-8.9 4.5-8.88 1.92 0.02 5.75 0.93 8.5 2.03 2.75 1.1 6.8 4.92 8.99 8.5 3.79 6.16 4 10.05 4 75.5 0 61.75-0.36 69.72-3.49 75.86-1.93 3.77-6.04 8.72-9.14 11-5.42 3.97-8.44 4.16-76 4.67-67.57 0.52-70.62 0.38-76.86-3.5-3.58-2.22-8.3-6.96-10.49-10.53-3.8-6.18-4-10.07-4.02-78.5-0.02-62.95 0.38-72.58 3.2-76.64 1.77-2.56 5.15-5.43 7.51-6.38 2.37-0.95 6.77-1.78 9.8-1.85zm411.5-0.13l-19 19.94-77.31 0.06-5.84 6c-4.97 5.1-5.85 7.58-5.82 16.5 0.02 10.01-0.37 10.8-8.5 17.04-4.69 3.6-9.21 6.52-10.03 6.5-0.83-0.02-1.28-10.62-1-23.54 0.46-21.4 0.94-24.11 5.46-30.37 2.72-3.78 7.67-8.02 11-9.42 4.36-1.85 20.61-2.58 111.04-2.71zm262-0.05c68.54-0.06 69.05-0.03 75.8 4.49 3.73 2.51 8.48 7.71 10.54 11.56 3.5 6.52 3.72 11.75 3.21 76.36-0.53 66.54-0.72 69.58-4.69 75-2.28 3.1-7.23 7.21-11 9.14-6.13 3.12-14.06 3.49-74.86 3.49-64.45-0.01-68.34-0.21-74.5-4-3.58-2.19-8.32-6.92-10.53-10.49-3.88-6.25-4.02-9.29-3.5-77.79 0.44-59.94 1.02-72.04 3.59-75.99 1.68-2.58 6.18-6.27 10-8.2 6.21-3.14 14.22-3.51 75.94-3.57zm-813 8.12c1.1 0.02 6.72 3.61 12.5 7.98 6.89 5.21 9.98 8.81 9 10.46-0.83 1.38-16.13 16.68-34 34-17.88 17.32-33.4 31.49-34.5 31.49-1.1 0-6.94-3.38-12.98-7.5-6.03-4.13-10.98-8.18-11-9-0.01-0.83 15.5-16.34 34.48-34.49 18.97-18.14 35.4-32.96 36.5-32.94zm601.17 19.93c1.07 0 1.84 26.48 1.85 63.5 0.01 61.99-0.09 63.71-4.5 72.35-2.84 5.57-7.12 10.21-11.52 12.51-6.38 3.33-12.98 3.65-74 3.64-59.77-0.01-67.76-0.38-74-3.5-4.59-2.3-8.56-6.6-11.51-12.5-4.24-8.45-4.49-11.12-3.49-78.33l19 14.33v25c0 24 0.2 25.2 10 35l59.5 0.08c56.05 0.08 59.79-0.14 69.5-7.72l0.94-105.04 8.2-9.66c4.51-5.31 9.03-9.66 10.03-9.66zm-666.17 13.49c3.85 0.57 7.45 1.37 8 1.76 0.55 0.4-0.53 2.45-2.4 4.55-2.16 2.42-6.94 4.16-13 4.73-5.28 0.49-15 3.25-21.6 6.13-8.15 3.56-15.53 5.25-23 5.25-6.77 0-14.27-1.52-19.5-3.95-4.68-2.18-8.54-4.64-8.59-5.46-0.05-0.83 1.4-2.71 3.22-4.19 2.78-2.26 4.93-2.14 13.59 0.73q10.28 3.4 17.28 1.99c3.85-0.79 10.6-3.24 15-5.47 4.4-2.22 11.6-4.73 16-5.57 4.4-0.85 11.15-1.07 15-0.5zm-11.34 44.45c1.29-0.03 6.16 2.67 10.84 6 4.67 3.33 8.05 6.96 7.5 8.06-0.55 1.1-5.92 3.57-11.92 5.5-6.01 1.92-11.48 3.05-12.16 2.5-0.67-0.55-0.18-5.73 1.09-11.5 1.28-5.78 3.37-10.53 4.65-10.56zm-62.94 2.04c0.71-0.02 5.78 1.46 11.28 3.27 6.16 2.03 12.69 2.82 17 2.06 3.85-0.68 9.59-1.92 12.75-2.77 5.3-1.42 5.68-1.16 5 3.41-0.42 2.78-2.94 6.05-5.75 7.47-2.75 1.39-9.5 2.53-15 2.54-5.5 0.01-13.38-0.88-17.5-1.97-4.13-1.1-8.85-3.34-10.5-4.99-2.27-2.27-2.46-3.73-0.78-6 1.23-1.65 2.8-3.01 3.5-3.02zm76.28 32.06c6.53-0.02 13.84 1.39 18 3.46q6.99 3.5 7.74 8.5c0.68 4.59 0.27 4.89-5 3.63-3.16-0.75-9.79-2.46-14.74-3.8-8.52-2.3-9.8-2.06-23.96 4.37-13.08 5.95-16.96 6.79-31 6.75-11.27-0.03-17.97-1.07-22.54-3.5-3.58-1.9-7.18-4.83-8-6.52-0.83-1.69-0.6-4.02 0.5-5.18 1.39-1.46 5.81-0.83 14.5 2.07 6.87 2.3 14.97 4.16 18 4.14 3.02-0.02 12.25-3.15 20.5-6.96 11.29-5.21 17.72-6.94 26-6.96z"/>
		<path id="Path 4" class="s0" d="m531 1207.33c-0.92 0.74-1.52 19.64-1.33 42 0.28 34.17 0.81 40.83 3.33 41.67 1.65 0.55 15.42 1 30.6 1 19.45 0 28.32-0.74 30.03-2.5 1.74-1.78 2.43-13 2.4-39-0.02-20.26-0.92-38.28-2.03-40.5-1.87-3.73-4-4-31.67-4-16.31 0-30.41 0.6-31.33 1.33zm239.9 61.12c-1.81 2.44-3.24 7.16-3.18 10.5 0.06 3.33 1.72 8.11 3.7 10.62 3.48 4.44 4.42 4.55 32.58 4l29-0.57 1-29c-58.48 0-59.95 0.2-63.1 4.45zm643.82 204.4c-2.35 1.5-5.21 4.39-6.36 6.43-1.29 2.32-2.13 25.39-2.22 61.22l-0.14 57.5 12 12h116l11-9.65c0.99-99.47 0.5-114.77-1.43-119.16-1.42-3.19-4.37-7.02-6.57-8.51-3.14-2.13-16.24-2.69-61-2.62-44.43 0.06-57.94 0.68-61.28 2.79zm-574.72 7.55c-1.54 1.32-2.61 4.7-2.37 7.5 0.24 2.81 1.09 6.1 1.9 7.33 0.81 1.23 3.5 2.8 5.97 3.5 2.61 0.74 6.61 0.01 9.5-1.73 2.75-1.65 5.01-4.57 5.02-6.5 0-1.92-1.35-5.52-3-8-1.93-2.88-5.04-4.5-8.62-4.5-3.08 0-6.86 1.08-8.4 2.4zm27.04 2.6c-1.67 2.75-2.59 6.8-2.04 9 0.55 2.2 2.8 4.9 5 6 2.2 1.1 5.8 1.55 8 1 2.2-0.55 4-1.9 4-3 0-1.1-2.7-2-6-2-4.33 0-6.28-1.11-7-4-0.55-2.2-0.55-4.9 0-6 0.55-1.1 3.89-2 7.41-2 3.89 0 5.86-0.79 5-2-0.77-1.1-3.64-2-6.37-2-3.15 0-6.07 1.83-8 5zm20.96-3c0 1.1 1.35 2 3 2 2.17 0 3 2.22 3 8 0 4.4 0.9 8 2 8 1.1 0 2-3.6 2-8 0-5.78 0.83-8 3-8 1.65 0 3.45-0.9 4-2 0.59-1.19-2.67-2-8-2-4.95 0-9 0.9-9 2zm-86 73v43l12 12h116l11-9.65 0.14-88.35h-139.14z"/>
		<path id="Path 5" class="s1" d="m842.35 1487.5c0.49 4.14 1.88 5.66 5.65 6.14 3.79 0.49 5.33-0.48 6.38-4 0.77-2.55 0.99-5.31 0.5-6.14-0.48-0.82-3.65-1.5-7.03-1.5-5.53 0-6.08 0.55-5.5 5.5zm618.15 30.39c-3.57 2.26-7.92 7.49-9.66 11.61-2 4.75-2.73 10.25-2 15 0.71 4.57 3.5 9.84 7.16 13.5 3.3 3.3 8.93 6.54 12.5 7.2 3.57 0.66 9.2 0.63 12.5-0.07 3.3-0.69 7.86-2.81 10.14-4.7 2.28-1.88 5.21-5.45 6.5-7.93 1.3-2.47 2.36-8.55 2.36-13.5 0-7.34-1.2-10.33-6.5-16.21-5.44-6.03-8.12-7.35-16.5-8.11-7.74-0.7-11.47 0.03-16.5 3.21zm-621 14.28c-6.16 1.5-7.41 2.64-6.99 6.33 0.37 3.36 1.64 4.37 5 4 3.24-0.36 4.77 0.75 5.49 4 0.55 2.48 1.23 12.6 1.5 22.5 0.49 17.73 0.57 18 5.5 18h5c0-54.56-0.21-56.02-4-56.33-2.2-0.18-7.38 0.5-11.5 1.5zm34.53-0.46c-2.34 1.3-2.77 4.59-2 15.47l0.97 13.82c16.12 0 21.8 0.9 23 2 1.21 1.1 1.93 4.23 1.6 6.96-0.38 3.15-2.42 5.63-5.6 6.8-3.63 1.33-6.78 0.93-11.5-1.46-6.2-3.15-6.64-3.12-9.5 0.7-2.76 3.69-2.57 4.32 2.5 8.07 3.79 2.8 8.5 4.05 15.15 4 8.05-0.06 10.63-1.07 15.5-6.07 3.83-3.93 5.85-8.07 5.85-12 0-3.3-0.9-7.8-2-10-1.1-2.2-5.15-5.35-9-7-3.85-1.65-9.25-3-12-3-3.67 0-5-1.07-5-4 0-2.95 1.45-4.09 5.5-4.34 3.03-0.19 6.85-0.54 8.5-0.79 1.65-0.24 4.58-0.54 6.5-0.66 2.1-0.12 3.5-1.81 3.5-4.21 0-2.2-1.35-4.45-3-5-1.65-0.55-8.17-0.99-14.5-0.97-6.33 0.02-12.84 0.77-14.47 1.68z"/>
	</g>
</svg>